<svg xmlns="http://www.w3.org/2000/svg" xmlns:xlink="http://www.w3.org/1999/xlink" width="217" zoomAndPan="magnify" viewBox="0 0 162.75 34.499999" height="46" preserveAspectRatio="xMidYMid meet" version="1.0"><defs><g/></defs><g fill="#ffffff" fill-opacity="1"><g transform="translate(16.825218, 22.962086)"><g><path d="M 9.21875 0.375 C 7.78125 0.375 6.335938 0.3125 4.890625 0.1875 C 3.453125 0.0703125 2.007812 0.015625 0.5625 0.015625 C 1.09375 -0.628906 1.472656 -1.414062 1.703125 -2.34375 C 1.941406 -3.28125 2.09375 -4.332031 2.15625 -5.5 C 2.21875 -6.675781 2.25 -7.929688 2.25 -9.265625 C 2.25 -10.617188 2.21875 -11.875 2.15625 -13.03125 C 2.09375 -14.195312 1.941406 -15.25 1.703125 -16.1875 C 1.472656 -17.125 1.09375 -17.914062 0.5625 -18.5625 C 1.289062 -18.5625 1.972656 -18.578125 2.609375 -18.609375 C 3.253906 -18.648438 3.910156 -18.691406 4.578125 -18.734375 C 5.242188 -18.785156 5.953125 -18.832031 6.703125 -18.875 C 7.453125 -18.914062 8.289062 -18.9375 9.21875 -18.9375 C 9.957031 -18.9375 10.722656 -18.828125 11.515625 -18.609375 C 12.304688 -18.390625 13.070312 -18.046875 13.8125 -17.578125 C 14.550781 -17.117188 15.210938 -16.507812 15.796875 -15.75 C 16.390625 -15 16.859375 -14.085938 17.203125 -13.015625 C 17.546875 -11.941406 17.71875 -10.691406 17.71875 -9.265625 C 17.71875 -7.847656 17.546875 -6.601562 17.203125 -5.53125 C 16.859375 -4.457031 16.390625 -3.546875 15.796875 -2.796875 C 15.210938 -2.046875 14.550781 -1.4375 13.8125 -0.96875 C 13.070312 -0.507812 12.304688 -0.171875 11.515625 0.046875 C 10.722656 0.265625 9.957031 0.375 9.21875 0.375 Z M 3.453125 -4.125 C 3.703125 -4.125 4.0625 -4.125 4.53125 -4.125 C 5 -4.125 5.515625 -4.125 6.078125 -4.125 C 6.640625 -4.132812 7.191406 -4.140625 7.734375 -4.140625 C 8.285156 -4.140625 8.765625 -4.140625 9.171875 -4.140625 C 9.859375 -4.140625 10.550781 -4.179688 11.25 -4.265625 C 11.945312 -4.359375 12.609375 -4.507812 13.234375 -4.71875 C 13.867188 -4.9375 14.4375 -5.238281 14.9375 -5.625 C 15.4375 -6.019531 15.828125 -6.515625 16.109375 -7.109375 C 16.390625 -7.703125 16.53125 -8.421875 16.53125 -9.265625 C 16.53125 -10.304688 16.3125 -11.164062 15.875 -11.84375 C 15.4375 -12.519531 14.859375 -13.046875 14.140625 -13.421875 C 13.421875 -13.796875 12.625 -14.0625 11.75 -14.21875 C 10.882812 -14.375 10.023438 -14.453125 9.171875 -14.453125 C 8.765625 -14.453125 8.285156 -14.453125 7.734375 -14.453125 C 7.191406 -14.453125 6.640625 -14.453125 6.078125 -14.453125 C 5.515625 -14.460938 5 -14.46875 4.53125 -14.46875 C 4.0625 -14.46875 3.703125 -14.46875 3.453125 -14.46875 Z M 3.453125 -4.125 "/></g></g></g><g fill="#ffffff" fill-opacity="1"><g transform="translate(35.478494, 22.962086)"><g><path d="M 0.5625 -18.578125 L 8.28125 -18.578125 C 7.15625 -17.203125 6.328125 -15.742188 5.796875 -14.203125 C 5.273438 -12.660156 5.015625 -11.019531 5.015625 -9.28125 C 5.015625 -7.5625 5.273438 -5.925781 5.796875 -4.375 C 6.328125 -2.832031 7.15625 -1.375 8.28125 0 L 0.5625 0 C 1.695312 -1.375 2.523438 -2.832031 3.046875 -4.375 C 3.566406 -5.925781 3.828125 -7.5625 3.828125 -9.28125 C 3.828125 -11.019531 3.566406 -12.660156 3.046875 -14.203125 C 2.523438 -15.742188 1.695312 -17.203125 0.5625 -18.578125 Z M 0.5625 -18.578125 "/></g></g></g><g fill="#ffffff" fill-opacity="1"><g transform="translate(44.32208, 22.962086)"><g/></g></g><g fill="#ffffff" fill-opacity="1"><g transform="translate(51.753663, 22.962086)"><g><path d="M 0.5625 -18.578125 L 6.1875 -18.578125 C 6.789062 -18.578125 7.265625 -18.390625 7.609375 -18.015625 C 7.953125 -17.648438 8.207031 -17.15625 8.375 -16.53125 C 8.539062 -15.914062 8.648438 -15.238281 8.703125 -14.5 C 8.753906 -13.757812 8.789062 -13.019531 8.8125 -12.28125 C 8.84375 -11.550781 8.882812 -10.875 8.9375 -10.25 C 8.988281 -9.632812 9.09375 -9.140625 9.25 -8.765625 C 9.414062 -8.398438 9.664062 -8.21875 10 -8.21875 C 10.34375 -8.21875 10.59375 -8.398438 10.75 -8.765625 C 10.90625 -9.140625 11.007812 -9.632812 11.0625 -10.25 C 11.113281 -10.875 11.148438 -11.550781 11.171875 -12.28125 C 11.203125 -13.019531 11.242188 -13.757812 11.296875 -14.5 C 11.359375 -15.238281 11.472656 -15.914062 11.640625 -16.53125 C 11.804688 -17.15625 12.054688 -17.648438 12.390625 -18.015625 C 12.734375 -18.390625 13.210938 -18.578125 13.828125 -18.578125 L 19.453125 -18.578125 C 18.921875 -17.929688 18.535156 -17.140625 18.296875 -16.203125 C 18.066406 -15.273438 17.921875 -14.226562 17.859375 -13.0625 C 17.796875 -11.894531 17.765625 -10.632812 17.765625 -9.28125 C 17.765625 -7.945312 17.796875 -6.691406 17.859375 -5.515625 C 17.921875 -4.347656 18.066406 -3.296875 18.296875 -2.359375 C 18.535156 -1.429688 18.921875 -0.644531 19.453125 0 L 11.140625 0 C 11.765625 -0.414062 12.390625 -0.945312 13.015625 -1.59375 C 13.648438 -2.238281 14.238281 -2.988281 14.78125 -3.84375 C 15.320312 -4.707031 15.753906 -5.675781 16.078125 -6.75 C 16.410156 -7.820312 16.578125 -8.988281 16.578125 -10.25 C 16.578125 -11.332031 16.5625 -12.164062 16.53125 -12.75 C 16.5 -13.34375 16.425781 -13.75 16.3125 -13.96875 C 16.207031 -14.195312 16.050781 -14.3125 15.84375 -14.3125 C 15.5 -14.3125 15.140625 -14.117188 14.765625 -13.734375 C 14.398438 -13.347656 14.039062 -12.84375 13.6875 -12.21875 C 13.34375 -11.601562 13.023438 -10.921875 12.734375 -10.171875 C 12.453125 -9.429688 12.222656 -8.695312 12.046875 -7.96875 C 11.867188 -7.25 11.765625 -6.59375 11.734375 -6 C 11.703125 -5.40625 11.773438 -4.953125 11.953125 -4.640625 L 8.0625 -4.640625 C 8.238281 -4.960938 8.3125 -5.421875 8.28125 -6.015625 C 8.257812 -6.609375 8.15625 -7.269531 7.96875 -8 C 7.789062 -8.738281 7.554688 -9.472656 7.265625 -10.203125 C 6.984375 -10.941406 6.664062 -11.617188 6.3125 -12.234375 C 5.96875 -12.859375 5.609375 -13.359375 5.234375 -13.734375 C 4.867188 -14.117188 4.507812 -14.3125 4.15625 -14.3125 C 3.945312 -14.3125 3.789062 -14.195312 3.6875 -13.96875 C 3.582031 -13.75 3.515625 -13.34375 3.484375 -12.75 C 3.453125 -12.164062 3.4375 -11.332031 3.4375 -10.25 C 3.4375 -8.988281 3.597656 -7.820312 3.921875 -6.75 C 4.253906 -5.675781 4.6875 -4.707031 5.21875 -3.84375 C 5.757812 -2.988281 6.347656 -2.238281 6.984375 -1.59375 C 7.628906 -0.945312 8.253906 -0.414062 8.859375 0 L 0.5625 0 C 1.09375 -0.644531 1.472656 -1.429688 1.703125 -2.359375 C 1.941406 -3.296875 2.09375 -4.347656 2.15625 -5.515625 C 2.21875 -6.691406 2.25 -7.945312 2.25 -9.28125 C 2.25 -10.632812 2.21875 -11.894531 2.15625 -13.0625 C 2.09375 -14.226562 1.941406 -15.273438 1.703125 -16.203125 C 1.472656 -17.140625 1.09375 -17.929688 0.5625 -18.578125 Z M 0.5625 -18.578125 "/></g></g></g><g fill="#ffffff" fill-opacity="1"><g transform="translate(71.763203, 22.962086)"><g><path d="M 16.59375 0 L 0.5625 0 C 1.09375 -0.644531 1.472656 -1.429688 1.703125 -2.359375 C 1.941406 -3.296875 2.09375 -4.347656 2.15625 -5.515625 C 2.21875 -6.691406 2.25 -7.945312 2.25 -9.28125 C 2.25 -10.632812 2.21875 -11.894531 2.15625 -13.0625 C 2.09375 -14.226562 1.941406 -15.273438 1.703125 -16.203125 C 1.472656 -17.140625 1.09375 -17.929688 0.5625 -18.578125 L 16.59375 -18.578125 L 16.59375 -12.609375 C 15.90625 -13.242188 15.0625 -13.679688 14.0625 -13.921875 C 13.070312 -14.160156 11.835938 -14.28125 10.359375 -14.28125 L 3.40625 -14.28125 L 3.40625 -11.296875 L 5.515625 -11.296875 C 6.140625 -11.296875 6.832031 -11.3125 7.59375 -11.34375 C 8.363281 -11.375 9.132812 -11.4375 9.90625 -11.53125 C 10.6875 -11.625 11.40625 -11.769531 12.0625 -11.96875 C 12.71875 -12.164062 13.238281 -12.4375 13.625 -12.78125 L 13.625 -5.921875 C 13.238281 -6.273438 12.71875 -6.550781 12.0625 -6.75 C 11.40625 -6.945312 10.6875 -7.085938 9.90625 -7.171875 C 9.132812 -7.265625 8.363281 -7.328125 7.59375 -7.359375 C 6.832031 -7.390625 6.140625 -7.40625 5.515625 -7.40625 L 3.40625 -7.40625 L 3.40625 -4.296875 L 10.359375 -4.296875 C 11.835938 -4.296875 13.070312 -4.414062 14.0625 -4.65625 C 15.0625 -4.894531 15.90625 -5.332031 16.59375 -5.96875 Z M 16.59375 0 "/></g></g></g><g fill="#ffffff" fill-opacity="1"><g transform="translate(88.911581, 22.962086)"><g><path d="M 0.46875 0 C 1 -0.644531 1.378906 -1.429688 1.609375 -2.359375 C 1.847656 -3.296875 2 -4.347656 2.0625 -5.515625 C 2.125 -6.691406 2.15625 -7.945312 2.15625 -9.28125 C 2.15625 -10.632812 2.125 -11.894531 2.0625 -13.0625 C 2 -14.226562 1.847656 -15.273438 1.609375 -16.203125 C 1.378906 -17.140625 1 -17.929688 0.46875 -18.578125 L 7.890625 -18.578125 C 7.398438 -18.078125 7.070312 -17.519531 6.90625 -16.90625 C 6.738281 -16.289062 6.703125 -15.640625 6.796875 -14.953125 C 6.898438 -14.273438 7.097656 -13.597656 7.390625 -12.921875 C 7.691406 -12.242188 8.054688 -11.59375 8.484375 -10.96875 C 8.921875 -10.351562 9.390625 -9.789062 9.890625 -9.28125 L 14.828125 -4.265625 L 14.828125 -9.28125 C 14.828125 -10.375 14.660156 -11.390625 14.328125 -12.328125 C 14.003906 -13.273438 13.570312 -14.140625 13.03125 -14.921875 C 12.488281 -15.710938 11.898438 -16.414062 11.265625 -17.03125 C 10.640625 -17.644531 10.019531 -18.160156 9.40625 -18.578125 L 17.71875 -18.578125 C 17.1875 -17.929688 16.800781 -17.140625 16.5625 -16.203125 C 16.332031 -15.273438 16.1875 -14.226562 16.125 -13.0625 C 16.0625 -11.894531 16.03125 -10.632812 16.03125 -9.28125 C 16.03125 -7.945312 16.0625 -6.691406 16.125 -5.515625 C 16.1875 -4.347656 16.332031 -3.296875 16.5625 -2.359375 C 16.800781 -1.429688 17.1875 -0.644531 17.71875 0 L 10.28125 0 C 10.769531 -0.5 11.097656 -1.054688 11.265625 -1.671875 C 11.429688 -2.285156 11.46875 -2.929688 11.375 -3.609375 C 11.28125 -4.296875 11.082031 -4.976562 10.78125 -5.65625 C 10.488281 -6.332031 10.125 -6.984375 9.6875 -7.609375 C 9.257812 -8.234375 8.796875 -8.789062 8.296875 -9.28125 L 3.359375 -14.3125 L 3.359375 -9.28125 C 3.359375 -8.195312 3.519531 -7.179688 3.84375 -6.234375 C 4.175781 -5.296875 4.613281 -4.429688 5.15625 -3.640625 C 5.695312 -2.859375 6.285156 -2.160156 6.921875 -1.546875 C 7.554688 -0.929688 8.175781 -0.414062 8.78125 0 Z M 0.46875 0 "/></g></g></g><g fill="#ffffff" fill-opacity="1"><g transform="translate(107.546279, 22.962086)"><g><path d="M 0.46875 0 C 1 -0.644531 1.378906 -1.429688 1.609375 -2.359375 C 1.847656 -3.296875 2 -4.347656 2.0625 -5.515625 C 2.125 -6.691406 2.15625 -7.945312 2.15625 -9.28125 C 2.15625 -10.632812 2.125 -11.894531 2.0625 -13.0625 C 2 -14.226562 1.847656 -15.273438 1.609375 -16.203125 C 1.378906 -17.140625 1 -17.929688 0.46875 -18.578125 L 7.890625 -18.578125 C 7.398438 -18.078125 7.070312 -17.519531 6.90625 -16.90625 C 6.738281 -16.289062 6.703125 -15.640625 6.796875 -14.953125 C 6.898438 -14.273438 7.097656 -13.597656 7.390625 -12.921875 C 7.691406 -12.242188 8.054688 -11.59375 8.484375 -10.96875 C 8.921875 -10.351562 9.390625 -9.789062 9.890625 -9.28125 L 14.828125 -4.265625 L 14.828125 -9.28125 C 14.828125 -10.375 14.660156 -11.390625 14.328125 -12.328125 C 14.003906 -13.273438 13.570312 -14.140625 13.03125 -14.921875 C 12.488281 -15.710938 11.898438 -16.414062 11.265625 -17.03125 C 10.640625 -17.644531 10.019531 -18.160156 9.40625 -18.578125 L 17.71875 -18.578125 C 17.1875 -17.929688 16.800781 -17.140625 16.5625 -16.203125 C 16.332031 -15.273438 16.1875 -14.226562 16.125 -13.0625 C 16.0625 -11.894531 16.03125 -10.632812 16.03125 -9.28125 C 16.03125 -7.945312 16.0625 -6.691406 16.125 -5.515625 C 16.1875 -4.347656 16.332031 -3.296875 16.5625 -2.359375 C 16.800781 -1.429688 17.1875 -0.644531 17.71875 0 L 10.28125 0 C 10.769531 -0.5 11.097656 -1.054688 11.265625 -1.671875 C 11.429688 -2.285156 11.46875 -2.929688 11.375 -3.609375 C 11.28125 -4.296875 11.082031 -4.976562 10.78125 -5.65625 C 10.488281 -6.332031 10.125 -6.984375 9.6875 -7.609375 C 9.257812 -8.234375 8.796875 -8.789062 8.296875 -9.28125 L 3.359375 -14.3125 L 3.359375 -9.28125 C 3.359375 -8.195312 3.519531 -7.179688 3.84375 -6.234375 C 4.175781 -5.296875 4.613281 -4.429688 5.15625 -3.640625 C 5.695312 -2.859375 6.285156 -2.160156 6.921875 -1.546875 C 7.554688 -0.929688 8.175781 -0.414062 8.78125 0 Z M 0.46875 0 "/></g></g></g><g fill="#ffffff" fill-opacity="1"><g transform="translate(126.180976, 22.962086)"><g><path d="M 8.21875 0 L 0 0 C 0.53125 -0.53125 1.035156 -1.203125 1.515625 -2.015625 C 1.992188 -2.835938 2.441406 -3.75 2.859375 -4.75 C 3.285156 -5.757812 3.671875 -6.804688 4.015625 -7.890625 C 4.359375 -8.972656 4.65625 -10.050781 4.90625 -11.125 C 5.164062 -12.207031 5.367188 -13.226562 5.515625 -14.1875 C 5.660156 -15.15625 5.753906 -16.015625 5.796875 -16.765625 C 5.847656 -17.523438 5.820312 -18.128906 5.71875 -18.578125 L 13.765625 -18.578125 C 13.679688 -18.128906 13.65625 -17.523438 13.6875 -16.765625 C 13.726562 -16.015625 13.820312 -15.15625 13.96875 -14.1875 C 14.113281 -13.226562 14.3125 -12.207031 14.5625 -11.125 C 14.820312 -10.050781 15.125 -8.972656 15.46875 -7.890625 C 15.820312 -6.804688 16.207031 -5.757812 16.625 -4.75 C 17.050781 -3.75 17.5 -2.835938 17.96875 -2.015625 C 18.445312 -1.203125 18.953125 -0.53125 19.484375 0 L 11.265625 0 C 11.640625 -0.257812 12.003906 -0.644531 12.359375 -1.15625 C 12.722656 -1.675781 13.023438 -2.253906 13.265625 -2.890625 C 13.503906 -3.523438 13.625 -4.160156 13.625 -4.796875 C 13.625 -5.253906 13.4375 -5.691406 13.0625 -6.109375 C 12.6875 -6.535156 12.203125 -6.878906 11.609375 -7.140625 C 11.015625 -7.410156 10.390625 -7.546875 9.734375 -7.546875 C 9.078125 -7.546875 8.453125 -7.410156 7.859375 -7.140625 C 7.265625 -6.878906 6.78125 -6.535156 6.40625 -6.109375 C 6.039062 -5.691406 5.859375 -5.253906 5.859375 -4.796875 C 5.859375 -4.160156 5.972656 -3.523438 6.203125 -2.890625 C 6.441406 -2.253906 6.738281 -1.675781 7.09375 -1.15625 C 7.457031 -0.644531 7.832031 -0.257812 8.21875 0 Z M 9.734375 -14.25 C 8.984375 -14.25 8.335938 -14.035156 7.796875 -13.609375 C 7.253906 -13.191406 6.816406 -12.628906 6.484375 -11.921875 C 6.160156 -11.222656 5.929688 -10.429688 5.796875 -9.546875 C 5.660156 -8.671875 5.609375 -7.773438 5.640625 -6.859375 C 5.640625 -7.648438 5.8125 -8.359375 6.15625 -8.984375 C 6.507812 -9.617188 6.992188 -10.117188 7.609375 -10.484375 C 8.234375 -10.859375 8.941406 -11.046875 9.734375 -11.046875 C 10.535156 -11.046875 11.242188 -10.859375 11.859375 -10.484375 C 12.472656 -10.117188 12.953125 -9.617188 13.296875 -8.984375 C 13.648438 -8.359375 13.828125 -7.648438 13.828125 -6.859375 C 13.859375 -7.773438 13.804688 -8.671875 13.671875 -9.546875 C 13.535156 -10.429688 13.300781 -11.222656 12.96875 -11.921875 C 12.644531 -12.628906 12.21875 -13.191406 11.6875 -13.609375 C 11.15625 -14.035156 10.503906 -14.25 9.734375 -14.25 Z M 9.734375 -14.25 "/></g></g></g><g fill="#ffffff" fill-opacity="1"><g transform="translate(66.421685, 31.930545)"><g><path d="M 2.578125 -1.703125 C 2.578125 -1.535156 2.523438 -1.382812 2.421875 -1.25 C 2.328125 -1.125 2.203125 -1.03125 2.046875 -0.96875 L 2.703125 0 L 2.234375 0 L 1.609375 -0.921875 L 0.890625 -0.921875 L 0.890625 0 L 0.515625 0 L 0.515625 -2.46875 L 1.78125 -2.46875 C 1.914062 -2.46875 2.046875 -2.4375 2.171875 -2.375 C 2.296875 -2.3125 2.394531 -2.21875 2.46875 -2.09375 C 2.539062 -1.976562 2.578125 -1.847656 2.578125 -1.703125 Z M 1.6875 -2.109375 L 0.890625 -2.109375 L 0.890625 -1.28125 L 1.734375 -1.28125 C 1.816406 -1.28125 1.890625 -1.300781 1.953125 -1.34375 C 2.023438 -1.382812 2.078125 -1.4375 2.109375 -1.5 C 2.148438 -1.5625 2.171875 -1.628906 2.171875 -1.703125 C 2.171875 -1.773438 2.148438 -1.84375 2.109375 -1.90625 C 2.066406 -1.96875 2.007812 -2.015625 1.9375 -2.046875 C 1.863281 -2.085938 1.78125 -2.109375 1.6875 -2.109375 Z M 1.6875 -2.109375 "/></g></g></g><g fill="#ffffff" fill-opacity="1"><g transform="translate(69.50073, 31.930545)"><g><path d="M 0.515625 -2.46875 L 2.34375 -2.46875 L 2.34375 -2.109375 L 0.890625 -2.109375 L 0.890625 -1.453125 L 2.15625 -1.453125 L 2.15625 -1.078125 L 0.890625 -1.078125 L 0.890625 -0.375 L 2.34375 -0.375 L 2.34375 0 L 0.515625 0 Z M 0.515625 -2.46875 "/></g></g></g><g fill="#ffffff" fill-opacity="1"><g transform="translate(72.279635, 31.930545)"><g><path d="M 0.578125 -0.75 C 0.703125 -0.613281 0.828125 -0.503906 0.953125 -0.421875 C 1.085938 -0.347656 1.253906 -0.3125 1.453125 -0.3125 C 1.554688 -0.3125 1.65625 -0.320312 1.75 -0.34375 C 1.84375 -0.375 1.921875 -0.414062 1.984375 -0.46875 C 2.046875 -0.519531 2.078125 -0.585938 2.078125 -0.671875 C 2.078125 -0.796875 2.015625 -0.882812 1.890625 -0.9375 C 1.765625 -0.988281 1.585938 -1.03125 1.359375 -1.0625 C 1.085938 -1.101562 0.867188 -1.179688 0.703125 -1.296875 C 0.535156 -1.410156 0.453125 -1.578125 0.453125 -1.796875 C 0.453125 -1.941406 0.492188 -2.066406 0.578125 -2.171875 C 0.671875 -2.273438 0.789062 -2.351562 0.9375 -2.40625 C 1.09375 -2.46875 1.257812 -2.5 1.4375 -2.5 C 1.664062 -2.5 1.863281 -2.460938 2.03125 -2.390625 C 2.195312 -2.316406 2.328125 -2.210938 2.421875 -2.078125 L 2.15625 -1.796875 C 2.082031 -1.910156 1.984375 -2 1.859375 -2.0625 C 1.734375 -2.132812 1.59375 -2.171875 1.4375 -2.171875 C 1.269531 -2.171875 1.128906 -2.140625 1.015625 -2.078125 C 0.910156 -2.015625 0.859375 -1.929688 0.859375 -1.828125 C 0.859375 -1.691406 0.914062 -1.597656 1.03125 -1.546875 C 1.15625 -1.492188 1.3125 -1.453125 1.5 -1.421875 C 1.625 -1.398438 1.742188 -1.375 1.859375 -1.34375 C 1.984375 -1.320312 2.085938 -1.285156 2.171875 -1.234375 C 2.265625 -1.179688 2.335938 -1.113281 2.390625 -1.03125 C 2.453125 -0.957031 2.484375 -0.863281 2.484375 -0.75 C 2.484375 -0.59375 2.4375 -0.453125 2.34375 -0.328125 C 2.257812 -0.210938 2.140625 -0.125 1.984375 -0.0625 C 1.828125 0 1.644531 0.03125 1.4375 0.03125 C 1.207031 0.03125 1 -0.00390625 0.8125 -0.078125 C 0.632812 -0.148438 0.472656 -0.269531 0.328125 -0.4375 Z M 0.578125 -0.75 "/></g></g></g><g fill="#ffffff" fill-opacity="1"><g transform="translate(75.097382, 31.930545)"><g><path d="M 1.078125 0 L 1.078125 -2.109375 L 0.25 -2.109375 L 0.25 -2.46875 L 2.3125 -2.46875 L 2.3125 -2.109375 L 1.46875 -2.109375 L 1.46875 0 Z M 1.078125 0 "/></g></g></g><g fill="#ffffff" fill-opacity="1"><g transform="translate(77.664428, 31.930545)"><g><path d="M 2.421875 0 L 2.15625 -0.59375 L 0.875 -0.59375 L 0.625 0 L 0.21875 0 L 1.3125 -2.46875 L 1.734375 -2.46875 L 2.828125 0 Z M 1.328125 -1.59375 L 1.046875 -0.953125 L 1.984375 -0.953125 L 1.703125 -1.609375 C 1.640625 -1.753906 1.578125 -1.910156 1.515625 -2.078125 C 1.484375 -1.992188 1.453125 -1.910156 1.421875 -1.828125 C 1.390625 -1.742188 1.359375 -1.664062 1.328125 -1.59375 Z M 1.328125 -1.59375 "/></g></g></g><g fill="#ffffff" fill-opacity="1"><g transform="translate(80.715223, 31.930545)"><g><path d="M 2.734375 -2.46875 L 2.734375 -1.078125 C 2.734375 -0.867188 2.6875 -0.679688 2.59375 -0.515625 C 2.5 -0.347656 2.367188 -0.21875 2.203125 -0.125 C 2.035156 -0.03125 1.835938 0.015625 1.609375 0.015625 C 1.378906 0.015625 1.179688 -0.03125 1.015625 -0.125 C 0.847656 -0.21875 0.710938 -0.347656 0.609375 -0.515625 C 0.515625 -0.679688 0.46875 -0.867188 0.46875 -1.078125 L 0.46875 -2.46875 L 0.859375 -2.46875 L 0.859375 -1.109375 C 0.859375 -0.953125 0.890625 -0.816406 0.953125 -0.703125 C 1.023438 -0.597656 1.117188 -0.507812 1.234375 -0.4375 C 1.347656 -0.375 1.472656 -0.34375 1.609375 -0.34375 C 1.753906 -0.34375 1.882812 -0.375 2 -0.4375 C 2.113281 -0.507812 2.203125 -0.597656 2.265625 -0.703125 C 2.335938 -0.816406 2.375 -0.953125 2.375 -1.109375 L 2.375 -2.46875 Z M 2.734375 -2.46875 "/></g></g></g><g fill="#ffffff" fill-opacity="1"><g transform="translate(83.928443, 31.930545)"><g><path d="M 2.578125 -1.703125 C 2.578125 -1.535156 2.523438 -1.382812 2.421875 -1.25 C 2.328125 -1.125 2.203125 -1.03125 2.046875 -0.96875 L 2.703125 0 L 2.234375 0 L 1.609375 -0.921875 L 0.890625 -0.921875 L 0.890625 0 L 0.515625 0 L 0.515625 -2.46875 L 1.78125 -2.46875 C 1.914062 -2.46875 2.046875 -2.4375 2.171875 -2.375 C 2.296875 -2.3125 2.394531 -2.21875 2.46875 -2.09375 C 2.539062 -1.976562 2.578125 -1.847656 2.578125 -1.703125 Z M 1.6875 -2.109375 L 0.890625 -2.109375 L 0.890625 -1.28125 L 1.734375 -1.28125 C 1.816406 -1.28125 1.890625 -1.300781 1.953125 -1.34375 C 2.023438 -1.382812 2.078125 -1.4375 2.109375 -1.5 C 2.148438 -1.5625 2.171875 -1.628906 2.171875 -1.703125 C 2.171875 -1.773438 2.148438 -1.84375 2.109375 -1.90625 C 2.066406 -1.96875 2.007812 -2.015625 1.9375 -2.046875 C 1.863281 -2.085938 1.78125 -2.109375 1.6875 -2.109375 Z M 1.6875 -2.109375 "/></g></g></g><g fill="#ffffff" fill-opacity="1"><g transform="translate(87.007488, 31.930545)"><g><path d="M 2.421875 0 L 2.15625 -0.59375 L 0.875 -0.59375 L 0.625 0 L 0.21875 0 L 1.3125 -2.46875 L 1.734375 -2.46875 L 2.828125 0 Z M 1.328125 -1.59375 L 1.046875 -0.953125 L 1.984375 -0.953125 L 1.703125 -1.609375 C 1.640625 -1.753906 1.578125 -1.910156 1.515625 -2.078125 C 1.484375 -1.992188 1.453125 -1.910156 1.421875 -1.828125 C 1.390625 -1.742188 1.359375 -1.664062 1.328125 -1.59375 Z M 1.328125 -1.59375 "/></g></g></g><g fill="#ffffff" fill-opacity="1"><g transform="translate(90.058283, 31.930545)"><g><path d="M 2.5625 -2.46875 L 2.9375 -2.46875 L 2.9375 0 L 2.5625 0 L 0.828125 -1.921875 C 0.835938 -1.765625 0.847656 -1.613281 0.859375 -1.46875 C 0.878906 -1.320312 0.890625 -1.175781 0.890625 -1.03125 L 0.890625 0 L 0.515625 0 L 0.515625 -2.46875 L 0.875 -2.46875 L 2.609375 -0.5 C 2.597656 -0.613281 2.585938 -0.738281 2.578125 -0.875 C 2.566406 -1.007812 2.5625 -1.144531 2.5625 -1.28125 C 2.5625 -1.414062 2.5625 -1.539062 2.5625 -1.65625 Z M 2.5625 -2.46875 "/></g></g></g><g fill="#ffffff" fill-opacity="1"><g transform="translate(93.50808, 31.930545)"><g><path d="M 1.078125 0 L 1.078125 -2.109375 L 0.25 -2.109375 L 0.25 -2.46875 L 2.3125 -2.46875 L 2.3125 -2.109375 L 1.46875 -2.109375 L 1.46875 0 Z M 1.078125 0 "/></g></g></g></svg>