<svg xmlns="http://www.w3.org/2000/svg" xmlns:xlink="http://www.w3.org/1999/xlink" width="500" zoomAndPan="magnify" viewBox="0 0 375 374.999991" height="500" preserveAspectRatio="xMidYMid meet" version="1.0"><defs><g/></defs><g fill="#ffffff" fill-opacity="1"><g transform="translate(41.531016, 203.394083)"><g><path d="M 20.875 0.84375 C 17.625 0.84375 14.363281 0.707031 11.09375 0.4375 C 7.820312 0.175781 4.546875 0.046875 1.265625 0.046875 C 2.472656 -1.410156 3.34375 -3.195312 3.875 -5.3125 C 4.40625 -7.4375 4.738281 -9.820312 4.875 -12.46875 C 5.019531 -15.125 5.09375 -17.96875 5.09375 -21 C 5.09375 -24.0625 5.019531 -26.910156 4.875 -29.546875 C 4.738281 -32.179688 4.40625 -34.554688 3.875 -36.671875 C 3.34375 -38.796875 2.472656 -40.585938 1.265625 -42.046875 C 2.921875 -42.046875 4.476562 -42.085938 5.9375 -42.171875 C 7.394531 -42.253906 8.875 -42.351562 10.375 -42.46875 C 11.875 -42.582031 13.472656 -42.679688 15.171875 -42.765625 C 16.867188 -42.847656 18.769531 -42.890625 20.875 -42.890625 C 22.5625 -42.890625 24.300781 -42.644531 26.09375 -42.15625 C 27.894531 -41.664062 29.628906 -40.894531 31.296875 -39.84375 C 32.960938 -38.789062 34.460938 -37.40625 35.796875 -35.6875 C 37.128906 -33.976562 38.1875 -31.910156 38.96875 -29.484375 C 39.757812 -27.054688 40.15625 -24.226562 40.15625 -21 C 40.15625 -17.769531 39.757812 -14.941406 38.96875 -12.515625 C 38.1875 -10.085938 37.128906 -8.023438 35.796875 -6.328125 C 34.460938 -4.628906 32.960938 -3.253906 31.296875 -2.203125 C 29.628906 -1.148438 27.894531 -0.378906 26.09375 0.109375 C 24.300781 0.597656 22.5625 0.84375 20.875 0.84375 Z M 7.828125 -9.34375 C 8.390625 -9.34375 9.203125 -9.34375 10.265625 -9.34375 C 11.335938 -9.34375 12.507812 -9.347656 13.78125 -9.359375 C 15.0625 -9.378906 16.316406 -9.390625 17.546875 -9.390625 C 18.785156 -9.390625 19.867188 -9.390625 20.796875 -9.390625 C 22.335938 -9.390625 23.898438 -9.484375 25.484375 -9.671875 C 27.066406 -9.867188 28.570312 -10.210938 30 -10.703125 C 31.4375 -11.203125 32.71875 -11.890625 33.84375 -12.765625 C 34.96875 -13.648438 35.851562 -14.765625 36.5 -16.109375 C 37.144531 -17.460938 37.46875 -19.09375 37.46875 -21 C 37.46875 -23.363281 36.96875 -25.304688 35.96875 -26.828125 C 34.96875 -28.359375 33.65625 -29.550781 32.03125 -30.40625 C 30.40625 -31.269531 28.609375 -31.875 26.640625 -32.21875 C 24.679688 -32.570312 22.734375 -32.75 20.796875 -32.75 C 19.867188 -32.75 18.785156 -32.75 17.546875 -32.75 C 16.316406 -32.75 15.0625 -32.753906 13.78125 -32.765625 C 12.507812 -32.785156 11.335938 -32.796875 10.265625 -32.796875 C 9.203125 -32.796875 8.390625 -32.796875 7.828125 -32.796875 Z M 7.828125 -9.34375 "/></g></g></g><g fill="#ffffff" fill-opacity="1"><g transform="translate(83.793083, 203.394083)"><g><path d="M 1.265625 -42.09375 L 18.78125 -42.09375 C 16.21875 -38.976562 14.335938 -35.671875 13.140625 -32.171875 C 11.953125 -28.679688 11.359375 -24.972656 11.359375 -21.046875 C 11.359375 -17.148438 11.953125 -13.445312 13.140625 -9.9375 C 14.335938 -6.425781 16.21875 -3.113281 18.78125 0 L 1.265625 0 C 3.847656 -3.113281 5.726562 -6.425781 6.90625 -9.9375 C 8.082031 -13.445312 8.671875 -17.148438 8.671875 -21.046875 C 8.671875 -24.972656 8.082031 -28.679688 6.90625 -32.171875 C 5.726562 -35.671875 3.847656 -38.976562 1.265625 -42.09375 Z M 1.265625 -42.09375 "/></g></g></g><g fill="#ffffff" fill-opacity="1"><g transform="translate(103.829683, 203.394083)"><g/></g></g><g fill="#ffffff" fill-opacity="1"><g transform="translate(120.667157, 203.394083)"><g><path d="M 1.265625 -42.09375 L 14.015625 -42.09375 C 15.390625 -42.09375 16.460938 -41.671875 17.234375 -40.828125 C 18.003906 -39.984375 18.578125 -38.859375 18.953125 -37.453125 C 19.335938 -36.054688 19.59375 -34.519531 19.71875 -32.84375 C 19.84375 -31.175781 19.929688 -29.507812 19.984375 -27.84375 C 20.046875 -26.175781 20.132812 -24.640625 20.25 -23.234375 C 20.363281 -21.828125 20.601562 -20.703125 20.96875 -19.859375 C 21.332031 -19.023438 21.890625 -18.609375 22.640625 -18.609375 C 23.429688 -18.609375 24 -19.023438 24.34375 -19.859375 C 24.695312 -20.703125 24.9375 -21.828125 25.0625 -23.234375 C 25.1875 -24.640625 25.273438 -26.175781 25.328125 -27.84375 C 25.390625 -29.507812 25.484375 -31.175781 25.609375 -32.84375 C 25.734375 -34.519531 25.984375 -36.054688 26.359375 -37.453125 C 26.742188 -38.859375 27.320312 -39.984375 28.09375 -40.828125 C 28.863281 -41.671875 29.9375 -42.09375 31.3125 -42.09375 L 44.078125 -42.09375 C 42.867188 -40.632812 41.992188 -38.84375 41.453125 -36.71875 C 40.921875 -34.601562 40.582031 -32.226562 40.4375 -29.59375 C 40.300781 -26.957031 40.234375 -24.109375 40.234375 -21.046875 C 40.234375 -18.015625 40.300781 -15.171875 40.4375 -12.515625 C 40.582031 -9.867188 40.921875 -7.484375 41.453125 -5.359375 C 41.992188 -3.242188 42.867188 -1.457031 44.078125 0 L 25.25 0 C 26.65625 -0.957031 28.070312 -2.164062 29.5 -3.625 C 30.9375 -5.082031 32.265625 -6.785156 33.484375 -8.734375 C 34.703125 -10.679688 35.679688 -12.867188 36.421875 -15.296875 C 37.171875 -17.722656 37.546875 -20.367188 37.546875 -23.234375 C 37.546875 -25.671875 37.507812 -27.554688 37.4375 -28.890625 C 37.375 -30.222656 37.222656 -31.140625 36.984375 -31.640625 C 36.742188 -32.148438 36.382812 -32.40625 35.90625 -32.40625 C 35.125 -32.40625 34.3125 -31.96875 33.46875 -31.09375 C 32.625 -30.226562 31.804688 -29.09375 31.015625 -27.6875 C 30.234375 -26.289062 29.519531 -24.75 28.875 -23.0625 C 28.226562 -21.382812 27.703125 -19.722656 27.296875 -18.078125 C 26.890625 -16.429688 26.648438 -14.9375 26.578125 -13.59375 C 26.515625 -12.25 26.675781 -11.226562 27.0625 -10.53125 L 18.265625 -10.53125 C 18.660156 -11.257812 18.828125 -12.296875 18.765625 -13.640625 C 18.710938 -14.984375 18.484375 -16.484375 18.078125 -18.140625 C 17.671875 -19.796875 17.132812 -21.457031 16.46875 -23.125 C 15.8125 -24.800781 15.09375 -26.335938 14.3125 -27.734375 C 13.53125 -29.140625 12.71875 -30.269531 11.875 -31.125 C 11.03125 -31.976562 10.210938 -32.40625 9.421875 -32.40625 C 8.953125 -32.40625 8.597656 -32.148438 8.359375 -31.640625 C 8.117188 -31.140625 7.960938 -30.222656 7.890625 -28.890625 C 7.816406 -27.554688 7.78125 -25.671875 7.78125 -23.234375 C 7.78125 -20.367188 8.148438 -17.722656 8.890625 -15.296875 C 9.640625 -12.867188 10.625 -10.679688 11.84375 -8.734375 C 13.070312 -6.785156 14.40625 -5.082031 15.84375 -3.625 C 17.289062 -2.164062 18.703125 -0.957031 20.078125 0 L 1.265625 0 C 2.472656 -1.457031 3.34375 -3.242188 3.875 -5.359375 C 4.40625 -7.484375 4.738281 -9.867188 4.875 -12.515625 C 5.019531 -15.171875 5.09375 -18.015625 5.09375 -21.046875 C 5.09375 -24.109375 5.019531 -26.957031 4.875 -29.59375 C 4.738281 -32.226562 4.40625 -34.601562 3.875 -36.71875 C 3.34375 -38.84375 2.472656 -40.632812 1.265625 -42.09375 Z M 1.265625 -42.09375 "/></g></g></g><g fill="#ffffff" fill-opacity="1"><g transform="translate(166.002065, 203.394083)"><g><path d="M 37.59375 0 L 1.265625 0 C 2.472656 -1.457031 3.34375 -3.242188 3.875 -5.359375 C 4.40625 -7.484375 4.738281 -9.867188 4.875 -12.515625 C 5.019531 -15.171875 5.09375 -18.015625 5.09375 -21.046875 C 5.09375 -24.109375 5.019531 -26.957031 4.875 -29.59375 C 4.738281 -32.226562 4.40625 -34.601562 3.875 -36.71875 C 3.34375 -38.84375 2.472656 -40.632812 1.265625 -42.09375 L 37.59375 -42.09375 L 37.59375 -28.578125 C 36.050781 -30.015625 34.148438 -31.003906 31.890625 -31.546875 C 29.628906 -32.097656 26.828125 -32.375 23.484375 -32.375 L 7.703125 -32.375 L 7.703125 -25.59375 L 12.5 -25.59375 C 13.90625 -25.59375 15.476562 -25.625 17.21875 -25.6875 C 18.957031 -25.757812 20.703125 -25.898438 22.453125 -26.109375 C 24.210938 -26.328125 25.832031 -26.660156 27.3125 -27.109375 C 28.800781 -27.554688 29.984375 -28.171875 30.859375 -28.953125 L 30.859375 -13.421875 C 29.984375 -14.210938 28.800781 -14.832031 27.3125 -15.28125 C 25.832031 -15.726562 24.210938 -16.054688 22.453125 -16.265625 C 20.703125 -16.472656 18.957031 -16.613281 17.21875 -16.6875 C 15.476562 -16.757812 13.90625 -16.796875 12.5 -16.796875 L 7.703125 -16.796875 L 7.703125 -9.71875 L 23.484375 -9.71875 C 26.828125 -9.71875 29.628906 -9.988281 31.890625 -10.53125 C 34.148438 -11.082031 36.050781 -12.078125 37.59375 -13.515625 Z M 37.59375 0 "/></g></g></g><g fill="#ffffff" fill-opacity="1"><g transform="translate(204.854536, 203.394083)"><g><path d="M 1.046875 0 C 2.253906 -1.457031 3.125 -3.242188 3.65625 -5.359375 C 4.195312 -7.484375 4.535156 -9.867188 4.671875 -12.515625 C 4.816406 -15.171875 4.890625 -18.015625 4.890625 -21.046875 C 4.890625 -24.109375 4.816406 -26.957031 4.671875 -29.59375 C 4.535156 -32.226562 4.195312 -34.601562 3.65625 -36.71875 C 3.125 -38.84375 2.253906 -40.632812 1.046875 -42.09375 L 17.890625 -42.09375 C 16.765625 -40.96875 16.007812 -39.703125 15.625 -38.296875 C 15.25 -36.898438 15.175781 -35.429688 15.40625 -33.890625 C 15.632812 -32.347656 16.082031 -30.8125 16.75 -29.28125 C 17.425781 -27.75 18.253906 -26.28125 19.234375 -24.875 C 20.210938 -23.46875 21.265625 -22.191406 22.390625 -21.046875 L 33.59375 -9.6875 L 33.59375 -21.046875 C 33.59375 -23.515625 33.21875 -25.816406 32.46875 -27.953125 C 31.726562 -30.085938 30.75 -32.046875 29.53125 -33.828125 C 28.3125 -35.609375 26.984375 -37.191406 25.546875 -38.578125 C 24.117188 -39.960938 22.703125 -41.132812 21.296875 -42.09375 L 40.15625 -42.09375 C 38.945312 -40.632812 38.078125 -38.84375 37.546875 -36.71875 C 37.015625 -34.601562 36.675781 -32.226562 36.53125 -29.59375 C 36.394531 -26.957031 36.328125 -24.109375 36.328125 -21.046875 C 36.328125 -18.015625 36.394531 -15.171875 36.53125 -12.515625 C 36.675781 -9.867188 37.015625 -7.484375 37.546875 -5.359375 C 38.078125 -3.242188 38.945312 -1.457031 40.15625 0 L 23.28125 0 C 24.40625 -1.125 25.15625 -2.382812 25.53125 -3.78125 C 25.90625 -5.1875 25.988281 -6.660156 25.78125 -8.203125 C 25.570312 -9.753906 25.128906 -11.289062 24.453125 -12.8125 C 23.785156 -14.34375 22.957031 -15.816406 21.96875 -17.234375 C 20.988281 -18.648438 19.9375 -19.921875 18.8125 -21.046875 L 7.625 -32.40625 L 7.625 -21.046875 C 7.625 -18.578125 7.992188 -16.273438 8.734375 -14.140625 C 9.472656 -12.003906 10.453125 -10.046875 11.671875 -8.265625 C 12.898438 -6.484375 14.234375 -4.898438 15.671875 -3.515625 C 17.117188 -2.128906 18.53125 -0.957031 19.90625 0 Z M 1.046875 0 "/></g></g></g><g fill="#ffffff" fill-opacity="1"><g transform="translate(247.074511, 203.394083)"><g><path d="M 1.046875 0 C 2.253906 -1.457031 3.125 -3.242188 3.65625 -5.359375 C 4.195312 -7.484375 4.535156 -9.867188 4.671875 -12.515625 C 4.816406 -15.171875 4.890625 -18.015625 4.890625 -21.046875 C 4.890625 -24.109375 4.816406 -26.957031 4.671875 -29.59375 C 4.535156 -32.226562 4.195312 -34.601562 3.65625 -36.71875 C 3.125 -38.84375 2.253906 -40.632812 1.046875 -42.09375 L 17.890625 -42.09375 C 16.765625 -40.96875 16.007812 -39.703125 15.625 -38.296875 C 15.25 -36.898438 15.175781 -35.429688 15.40625 -33.890625 C 15.632812 -32.347656 16.082031 -30.8125 16.75 -29.28125 C 17.425781 -27.75 18.253906 -26.28125 19.234375 -24.875 C 20.210938 -23.46875 21.265625 -22.191406 22.390625 -21.046875 L 33.59375 -9.6875 L 33.59375 -21.046875 C 33.59375 -23.515625 33.21875 -25.816406 32.46875 -27.953125 C 31.726562 -30.085938 30.75 -32.046875 29.53125 -33.828125 C 28.3125 -35.609375 26.984375 -37.191406 25.546875 -38.578125 C 24.117188 -39.960938 22.703125 -41.132812 21.296875 -42.09375 L 40.15625 -42.09375 C 38.945312 -40.632812 38.078125 -38.84375 37.546875 -36.71875 C 37.015625 -34.601562 36.675781 -32.226562 36.53125 -29.59375 C 36.394531 -26.957031 36.328125 -24.109375 36.328125 -21.046875 C 36.328125 -18.015625 36.394531 -15.171875 36.53125 -12.515625 C 36.675781 -9.867188 37.015625 -7.484375 37.546875 -5.359375 C 38.078125 -3.242188 38.945312 -1.457031 40.15625 0 L 23.28125 0 C 24.40625 -1.125 25.15625 -2.382812 25.53125 -3.78125 C 25.90625 -5.1875 25.988281 -6.660156 25.78125 -8.203125 C 25.570312 -9.753906 25.128906 -11.289062 24.453125 -12.8125 C 23.785156 -14.34375 22.957031 -15.816406 21.96875 -17.234375 C 20.988281 -18.648438 19.9375 -19.921875 18.8125 -21.046875 L 7.625 -32.40625 L 7.625 -21.046875 C 7.625 -18.578125 7.992188 -16.273438 8.734375 -14.140625 C 9.472656 -12.003906 10.453125 -10.046875 11.671875 -8.265625 C 12.898438 -6.484375 14.234375 -4.898438 15.671875 -3.515625 C 17.117188 -2.128906 18.53125 -0.957031 19.90625 0 Z M 1.046875 0 "/></g></g></g><g fill="#ffffff" fill-opacity="1"><g transform="translate(289.294487, 203.394083)"><g><path d="M 18.609375 0 L 0 0 C 1.207031 -1.207031 2.347656 -2.734375 3.421875 -4.578125 C 4.503906 -6.429688 5.519531 -8.492188 6.46875 -10.765625 C 7.425781 -13.046875 8.296875 -15.410156 9.078125 -17.859375 C 9.867188 -20.316406 10.550781 -22.765625 11.125 -25.203125 C 11.707031 -27.648438 12.164062 -29.96875 12.5 -32.15625 C 12.832031 -34.34375 13.046875 -36.289062 13.140625 -38 C 13.242188 -39.71875 13.1875 -41.082031 12.96875 -42.09375 L 31.1875 -42.09375 C 30.988281 -41.082031 30.929688 -39.71875 31.015625 -38 C 31.109375 -36.289062 31.320312 -34.34375 31.65625 -32.15625 C 31.988281 -29.96875 32.441406 -27.648438 33.015625 -25.203125 C 33.597656 -22.765625 34.28125 -20.316406 35.0625 -17.859375 C 35.851562 -15.410156 36.722656 -13.046875 37.671875 -10.765625 C 38.628906 -8.492188 39.644531 -6.429688 40.71875 -4.578125 C 41.800781 -2.734375 42.945312 -1.207031 44.15625 0 L 25.515625 0 C 26.378906 -0.59375 27.21875 -1.46875 28.03125 -2.625 C 28.84375 -3.789062 29.515625 -5.097656 30.046875 -6.546875 C 30.585938 -7.992188 30.859375 -9.429688 30.859375 -10.859375 C 30.859375 -11.898438 30.4375 -12.894531 29.59375 -13.84375 C 28.75 -14.800781 27.648438 -15.582031 26.296875 -16.1875 C 24.953125 -16.789062 23.539062 -17.09375 22.0625 -17.09375 C 20.570312 -17.09375 19.148438 -16.789062 17.796875 -16.1875 C 16.453125 -15.582031 15.359375 -14.800781 14.515625 -13.84375 C 13.679688 -12.894531 13.265625 -11.898438 13.265625 -10.859375 C 13.265625 -9.429688 13.53125 -7.992188 14.0625 -6.546875 C 14.59375 -5.097656 15.265625 -3.789062 16.078125 -2.625 C 16.890625 -1.46875 17.734375 -0.59375 18.609375 0 Z M 22.0625 -32.28125 C 20.34375 -32.28125 18.875 -31.800781 17.65625 -30.84375 C 16.4375 -29.894531 15.453125 -28.617188 14.703125 -27.015625 C 13.960938 -25.421875 13.4375 -23.625 13.125 -21.625 C 12.820312 -19.632812 12.710938 -17.601562 12.796875 -15.53125 C 12.796875 -17.332031 13.1875 -18.945312 13.96875 -20.375 C 14.757812 -21.800781 15.851562 -22.9375 17.25 -23.78125 C 18.65625 -24.625 20.257812 -25.046875 22.0625 -25.046875 C 23.882812 -25.046875 25.488281 -24.625 26.875 -23.78125 C 28.257812 -22.9375 29.34375 -21.800781 30.125 -20.375 C 30.914062 -18.945312 31.3125 -17.332031 31.3125 -15.53125 C 31.394531 -17.601562 31.28125 -19.632812 30.96875 -21.625 C 30.664062 -23.625 30.140625 -25.421875 29.390625 -27.015625 C 28.648438 -28.617188 27.675781 -29.894531 26.46875 -30.84375 C 25.269531 -31.800781 23.800781 -32.28125 22.0625 -32.28125 Z M 22.0625 -32.28125 "/></g></g></g><g fill="#ffffff" fill-opacity="1"><g transform="translate(153.899965, 222.633759)"><g><path d="M 5.84375 -3.84375 C 5.84375 -3.476562 5.726562 -3.144531 5.5 -2.84375 C 5.269531 -2.539062 4.976562 -2.328125 4.625 -2.203125 L 6.125 0.015625 L 5.0625 0 L 3.65625 -2.078125 L 2.03125 -2.078125 L 2.03125 0 L 1.15625 0 L 1.15625 -5.59375 L 4.046875 -5.59375 C 4.359375 -5.59375 4.648438 -5.519531 4.921875 -5.375 C 5.191406 -5.226562 5.410156 -5.023438 5.578125 -4.765625 C 5.753906 -4.503906 5.84375 -4.195312 5.84375 -3.84375 Z M 3.84375 -4.765625 L 2.03125 -4.765625 L 2.03125 -2.90625 L 3.9375 -2.90625 C 4.125 -2.90625 4.289062 -2.945312 4.4375 -3.03125 C 4.59375 -3.125 4.710938 -3.242188 4.796875 -3.390625 C 4.890625 -3.535156 4.9375 -3.691406 4.9375 -3.859375 C 4.9375 -4.035156 4.882812 -4.191406 4.78125 -4.328125 C 4.675781 -4.460938 4.539062 -4.566406 4.375 -4.640625 C 4.21875 -4.722656 4.039062 -4.765625 3.84375 -4.765625 Z M 3.84375 -4.765625 "/></g></g></g><g fill="#ffffff" fill-opacity="1"><g transform="translate(160.876048, 222.633759)"><g><path d="M 1.15625 -5.59375 L 5.3125 -5.59375 L 5.3125 -4.765625 L 2.03125 -4.765625 L 2.03125 -3.28125 L 4.875 -3.28125 L 4.875 -2.453125 L 2.03125 -2.453125 L 2.03125 -0.828125 L 5.3125 -0.828125 L 5.3125 0 L 1.15625 0 Z M 1.15625 -5.59375 "/></g></g></g><g fill="#ffffff" fill-opacity="1"><g transform="translate(167.172115, 222.633759)"><g><path d="M 1.3125 -1.71875 C 1.59375 -1.382812 1.878906 -1.128906 2.171875 -0.953125 C 2.472656 -0.785156 2.84375 -0.703125 3.28125 -0.703125 C 3.519531 -0.703125 3.742188 -0.726562 3.953125 -0.78125 C 4.171875 -0.84375 4.351562 -0.9375 4.5 -1.0625 C 4.644531 -1.1875 4.71875 -1.34375 4.71875 -1.53125 C 4.71875 -1.800781 4.570312 -1.992188 4.28125 -2.109375 C 4 -2.222656 3.601562 -2.320312 3.09375 -2.40625 C 2.46875 -2.5 1.96875 -2.671875 1.59375 -2.921875 C 1.21875 -3.179688 1.03125 -3.5625 1.03125 -4.0625 C 1.03125 -4.394531 1.128906 -4.679688 1.328125 -4.921875 C 1.523438 -5.160156 1.796875 -5.347656 2.140625 -5.484375 C 2.484375 -5.617188 2.859375 -5.6875 3.265625 -5.6875 C 3.785156 -5.6875 4.226562 -5.597656 4.59375 -5.421875 C 4.96875 -5.253906 5.265625 -5.015625 5.484375 -4.703125 L 4.890625 -4.078125 C 4.710938 -4.328125 4.484375 -4.523438 4.203125 -4.671875 C 3.929688 -4.828125 3.613281 -4.90625 3.25 -4.90625 C 2.875 -4.90625 2.5625 -4.835938 2.3125 -4.703125 C 2.0625 -4.566406 1.9375 -4.375 1.9375 -4.125 C 1.9375 -3.84375 2.070312 -3.640625 2.34375 -3.515625 C 2.613281 -3.398438 2.96875 -3.304688 3.40625 -3.234375 C 3.6875 -3.191406 3.957031 -3.132812 4.21875 -3.0625 C 4.488281 -2.988281 4.726562 -2.894531 4.9375 -2.78125 C 5.144531 -2.664062 5.304688 -2.519531 5.421875 -2.34375 C 5.546875 -2.175781 5.609375 -1.960938 5.609375 -1.703125 C 5.609375 -1.335938 5.515625 -1.019531 5.328125 -0.75 C 5.140625 -0.488281 4.863281 -0.285156 4.5 -0.140625 C 4.144531 0.00390625 3.726562 0.078125 3.25 0.078125 C 2.726562 0.078125 2.257812 -0.00390625 1.84375 -0.171875 C 1.425781 -0.347656 1.0625 -0.628906 0.75 -1.015625 Z M 1.3125 -1.71875 "/></g></g></g><g fill="#ffffff" fill-opacity="1"><g transform="translate(173.556184, 222.633759)"><g><path d="M 2.453125 0 L 2.453125 -4.765625 L 0.5625 -4.765625 L 0.5625 -5.59375 L 5.25 -5.59375 L 5.25 -4.765625 L 3.3125 -4.765625 L 3.3125 0 Z M 2.453125 0 "/></g></g></g><g fill="#ffffff" fill-opacity="1"><g transform="translate(179.372248, 222.633759)"><g><path d="M 5.46875 0 L 4.875 -1.34375 L 2 -1.34375 L 1.40625 0 L 0.5 0 L 2.984375 -5.59375 L 3.9375 -5.59375 L 6.40625 0 Z M 3 -3.609375 L 2.375 -2.171875 L 4.5 -2.171875 L 3.859375 -3.640625 C 3.703125 -3.972656 3.5625 -4.328125 3.4375 -4.703125 C 3.363281 -4.503906 3.289062 -4.3125 3.21875 -4.125 C 3.144531 -3.945312 3.070312 -3.773438 3 -3.609375 Z M 3 -3.609375 "/></g></g></g><g fill="#ffffff" fill-opacity="1"><g transform="translate(186.284325, 222.633759)"><g><path d="M 6.203125 -5.609375 L 6.203125 -2.453125 C 6.203125 -1.972656 6.09375 -1.539062 5.875 -1.15625 C 5.664062 -0.78125 5.367188 -0.484375 4.984375 -0.265625 C 4.597656 -0.0546875 4.148438 0.046875 3.640625 0.046875 C 3.128906 0.046875 2.679688 -0.0546875 2.296875 -0.265625 C 1.910156 -0.484375 1.609375 -0.78125 1.390625 -1.15625 C 1.179688 -1.539062 1.078125 -1.972656 1.078125 -2.453125 L 1.078125 -5.609375 L 1.9375 -5.609375 L 1.9375 -2.5 C 1.9375 -2.164062 2.015625 -1.867188 2.171875 -1.609375 C 2.328125 -1.347656 2.53125 -1.144531 2.78125 -1 C 3.039062 -0.863281 3.328125 -0.796875 3.640625 -0.796875 C 3.972656 -0.796875 4.269531 -0.863281 4.53125 -1 C 4.789062 -1.144531 5 -1.347656 5.15625 -1.609375 C 5.3125 -1.867188 5.390625 -2.164062 5.390625 -2.5 L 5.390625 -5.609375 Z M 6.203125 -5.609375 "/></g></g></g><g fill="#ffffff" fill-opacity="1"><g transform="translate(193.564405, 222.633759)"><g><path d="M 5.84375 -3.84375 C 5.84375 -3.476562 5.726562 -3.144531 5.5 -2.84375 C 5.269531 -2.539062 4.976562 -2.328125 4.625 -2.203125 L 6.125 0.015625 L 5.0625 0 L 3.65625 -2.078125 L 2.03125 -2.078125 L 2.03125 0 L 1.15625 0 L 1.15625 -5.59375 L 4.046875 -5.59375 C 4.359375 -5.59375 4.648438 -5.519531 4.921875 -5.375 C 5.191406 -5.226562 5.410156 -5.023438 5.578125 -4.765625 C 5.753906 -4.503906 5.84375 -4.195312 5.84375 -3.84375 Z M 3.84375 -4.765625 L 2.03125 -4.765625 L 2.03125 -2.90625 L 3.9375 -2.90625 C 4.125 -2.90625 4.289062 -2.945312 4.4375 -3.03125 C 4.59375 -3.125 4.710938 -3.242188 4.796875 -3.390625 C 4.890625 -3.535156 4.9375 -3.691406 4.9375 -3.859375 C 4.9375 -4.035156 4.882812 -4.191406 4.78125 -4.328125 C 4.675781 -4.460938 4.539062 -4.566406 4.375 -4.640625 C 4.21875 -4.722656 4.039062 -4.765625 3.84375 -4.765625 Z M 3.84375 -4.765625 "/></g></g></g><g fill="#ffffff" fill-opacity="1"><g transform="translate(200.540487, 222.633759)"><g><path d="M 5.46875 0 L 4.875 -1.34375 L 2 -1.34375 L 1.40625 0 L 0.5 0 L 2.984375 -5.59375 L 3.9375 -5.59375 L 6.40625 0 Z M 3 -3.609375 L 2.375 -2.171875 L 4.5 -2.171875 L 3.859375 -3.640625 C 3.703125 -3.972656 3.5625 -4.328125 3.4375 -4.703125 C 3.363281 -4.503906 3.289062 -4.3125 3.21875 -4.125 C 3.144531 -3.945312 3.070312 -3.773438 3 -3.609375 Z M 3 -3.609375 "/></g></g></g><g fill="#ffffff" fill-opacity="1"><g transform="translate(207.452564, 222.633759)"><g><path d="M 5.796875 -5.59375 L 6.65625 -5.59375 L 6.65625 0 L 5.8125 0 L 1.875 -4.359375 C 1.90625 -4.015625 1.9375 -3.671875 1.96875 -3.328125 C 2.007812 -2.992188 2.03125 -2.660156 2.03125 -2.328125 L 2.03125 0 L 1.15625 0 L 1.15625 -5.59375 L 1.984375 -5.59375 L 5.921875 -1.140625 C 5.890625 -1.398438 5.863281 -1.679688 5.84375 -1.984375 C 5.820312 -2.285156 5.804688 -2.585938 5.796875 -2.890625 C 5.796875 -3.203125 5.796875 -3.492188 5.796875 -3.765625 Z M 5.796875 -5.59375 "/></g></g></g><g fill="#ffffff" fill-opacity="1"><g transform="translate(215.268646, 222.633759)"><g><path d="M 2.453125 0 L 2.453125 -4.765625 L 0.5625 -4.765625 L 0.5625 -5.59375 L 5.25 -5.59375 L 5.25 -4.765625 L 3.3125 -4.765625 L 3.3125 0 Z M 2.453125 0 "/></g></g></g></svg>