<svg xmlns="http://www.w3.org/2000/svg" xmlns:xlink="http://www.w3.org/1999/xlink" width="217" zoomAndPan="magnify" viewBox="0 0 162.75 34.499999" height="46" preserveAspectRatio="xMidYMid meet" version="1.0"><defs><g/></defs><g fill="#ffffff" fill-opacity="1"><g transform="translate(27.430434, 18.297103)"><g><path d="M 1.078125 0 L 1.078125 -0.28125 C 1.398438 -0.375 1.617188 -0.582031 1.734375 -0.90625 C 1.859375 -1.226562 1.921875 -1.816406 1.921875 -2.671875 L 1.921875 -12.078125 C 1.921875 -12.953125 1.859375 -13.546875 1.734375 -13.859375 C 1.617188 -14.171875 1.398438 -14.378906 1.078125 -14.484375 L 1.078125 -14.75 L 6.109375 -14.75 C 7.554688 -14.75 8.789062 -14.539062 9.8125 -14.125 C 10.84375 -13.71875 11.679688 -13.171875 12.328125 -12.484375 C 12.972656 -11.796875 13.445312 -11.03125 13.75 -10.1875 C 14.050781 -9.351562 14.203125 -8.507812 14.203125 -7.65625 C 14.222656 -6.175781 13.921875 -4.859375 13.296875 -3.703125 C 12.671875 -2.554688 11.785156 -1.648438 10.640625 -0.984375 C 9.492188 -0.328125 8.144531 0 6.59375 0 Z M 3.640625 -1.859375 C 3.640625 -1.359375 3.722656 -0.972656 3.890625 -0.703125 C 4.066406 -0.441406 4.441406 -0.3125 5.015625 -0.3125 L 6.5625 -0.3125 C 8.394531 -0.3125 9.804688 -0.84375 10.796875 -1.90625 C 11.785156 -2.96875 12.28125 -4.601562 12.28125 -6.8125 C 12.28125 -8.21875 12.003906 -9.492188 11.453125 -10.640625 C 10.910156 -11.796875 10.101562 -12.71875 9.03125 -13.40625 C 7.96875 -14.09375 6.648438 -14.4375 5.078125 -14.4375 L 3.640625 -14.4375 Z M 3.640625 -1.859375 "/></g></g></g><g fill="#ffffff" fill-opacity="1"><g transform="translate(43.559227, 18.297103)"><g><path d="M 1.078125 0 L 1.078125 -0.28125 C 1.398438 -0.375 1.617188 -0.582031 1.734375 -0.90625 C 1.859375 -1.226562 1.921875 -1.816406 1.921875 -2.671875 L 1.921875 -12.078125 C 1.921875 -12.953125 1.859375 -13.546875 1.734375 -13.859375 C 1.617188 -14.171875 1.398438 -14.378906 1.078125 -14.484375 L 1.078125 -14.75 L 4.484375 -14.75 L 4.484375 -14.484375 C 4.160156 -14.378906 3.9375 -14.171875 3.8125 -13.859375 C 3.695312 -13.546875 3.640625 -12.953125 3.640625 -12.078125 L 3.640625 -2.671875 C 3.640625 -1.816406 3.695312 -1.226562 3.8125 -0.90625 C 3.9375 -0.582031 4.160156 -0.375 4.484375 -0.28125 L 4.484375 0 Z M 1.078125 0 "/></g></g></g><g fill="#ffffff" fill-opacity="1"><g transform="translate(49.968642, 18.297103)"><g/></g></g><g fill="#ffffff" fill-opacity="1"><g transform="translate(55.239563, 18.297103)"><g><path d="M 1.046875 0 L 1.046875 -0.28125 C 1.367188 -0.375 1.585938 -0.582031 1.703125 -0.90625 C 1.828125 -1.226562 1.890625 -1.816406 1.890625 -2.671875 L 1.890625 -11.234375 C 1.890625 -12.035156 1.84375 -12.65625 1.75 -13.09375 C 1.65625 -13.539062 1.507812 -13.863281 1.3125 -14.0625 C 1.125 -14.257812 0.890625 -14.398438 0.609375 -14.484375 L 0.609375 -14.75 L 3.15625 -14.75 L 8.65625 -5.671875 L 14.0625 -14.75 L 16.4375 -14.75 L 16.4375 -14.484375 C 16.15625 -14.398438 15.921875 -14.257812 15.734375 -14.0625 C 15.546875 -13.863281 15.398438 -13.539062 15.296875 -13.09375 C 15.203125 -12.65625 15.15625 -12.035156 15.15625 -11.234375 L 15.15625 -2.671875 C 15.15625 -1.816406 15.210938 -1.226562 15.328125 -0.90625 C 15.453125 -0.582031 15.675781 -0.375 16 -0.28125 L 16 0 L 12.578125 0 L 12.578125 -0.28125 C 12.898438 -0.375 13.117188 -0.582031 13.234375 -0.90625 C 13.359375 -1.226562 13.421875 -1.816406 13.421875 -2.671875 L 13.421875 -13.046875 L 8.078125 -4 L 7.671875 -4 L 2.28125 -12.875 L 2.28125 -3.515625 C 2.28125 -2.710938 2.332031 -2.09375 2.4375 -1.65625 C 2.550781 -1.226562 2.710938 -0.910156 2.921875 -0.703125 C 3.140625 -0.503906 3.398438 -0.363281 3.703125 -0.28125 L 3.703125 0 Z M 1.046875 0 "/></g></g></g><g fill="#ffffff" fill-opacity="1"><g transform="translate(73.603186, 18.297103)"><g><path d="M 1.078125 0 L 1.078125 -0.28125 C 1.398438 -0.375 1.617188 -0.582031 1.734375 -0.90625 C 1.859375 -1.226562 1.921875 -1.816406 1.921875 -2.671875 L 1.921875 -12.078125 C 1.921875 -12.953125 1.859375 -13.546875 1.734375 -13.859375 C 1.617188 -14.171875 1.398438 -14.378906 1.078125 -14.484375 L 1.078125 -14.75 L 10.875 -14.75 L 11.109375 -12.015625 L 10.875 -11.953125 C 10.507812 -12.878906 10 -13.523438 9.34375 -13.890625 C 8.695312 -14.253906 7.832031 -14.4375 6.75 -14.4375 L 3.640625 -14.4375 L 3.640625 -8.046875 L 6.34375 -8.046875 C 7.144531 -8.046875 7.765625 -8.097656 8.203125 -8.203125 C 8.648438 -8.316406 8.972656 -8.476562 9.171875 -8.6875 C 9.378906 -8.90625 9.523438 -9.171875 9.609375 -9.484375 L 9.859375 -9.484375 L 9.859375 -6.296875 L 9.609375 -6.296875 C 9.523438 -6.617188 9.378906 -6.882812 9.171875 -7.09375 C 8.972656 -7.3125 8.648438 -7.472656 8.203125 -7.578125 C 7.765625 -7.679688 7.144531 -7.734375 6.34375 -7.734375 L 3.640625 -7.734375 L 3.640625 -1.265625 C 3.640625 -0.628906 3.957031 -0.3125 4.59375 -0.3125 L 7.328125 -0.3125 C 8.347656 -0.3125 9.1875 -0.488281 9.84375 -0.84375 C 10.5 -1.195312 11.019531 -1.863281 11.40625 -2.84375 L 11.640625 -2.796875 L 11.46875 0 Z M 1.078125 0 "/></g></g></g><g fill="#ffffff" fill-opacity="1"><g transform="translate(86.864658, 18.297103)"><g><path d="M 12.203125 0.171875 L 2.28125 -12.75 L 2.28125 -3.515625 C 2.28125 -2.710938 2.332031 -2.09375 2.4375 -1.65625 C 2.550781 -1.226562 2.71875 -0.910156 2.9375 -0.703125 C 3.15625 -0.503906 3.421875 -0.363281 3.734375 -0.28125 L 3.734375 0 L 1.09375 0 L 1.09375 -0.28125 C 1.414062 -0.375 1.632812 -0.582031 1.75 -0.90625 C 1.875 -1.226562 1.9375 -1.816406 1.9375 -2.671875 L 1.9375 -12.078125 C 1.9375 -12.953125 1.859375 -13.546875 1.703125 -13.859375 C 1.546875 -14.171875 1.257812 -14.378906 0.84375 -14.484375 L 0.84375 -14.75 L 2.90625 -14.75 L 12.125 -2.828125 L 12.125 -11.234375 C 12.125 -12.035156 12.066406 -12.65625 11.953125 -13.09375 C 11.835938 -13.539062 11.675781 -13.863281 11.46875 -14.0625 C 11.257812 -14.257812 10.992188 -14.398438 10.671875 -14.484375 L 10.671875 -14.75 L 13.328125 -14.75 L 13.328125 -14.484375 C 13.003906 -14.378906 12.78125 -14.171875 12.65625 -13.859375 C 12.539062 -13.546875 12.484375 -12.953125 12.484375 -12.078125 L 12.484375 0.171875 Z M 12.203125 0.171875 "/></g></g></g><g fill="#ffffff" fill-opacity="1"><g transform="translate(101.876047, 18.297103)"><g><path d="M 12.203125 0.171875 L 2.28125 -12.75 L 2.28125 -3.515625 C 2.28125 -2.710938 2.332031 -2.09375 2.4375 -1.65625 C 2.550781 -1.226562 2.71875 -0.910156 2.9375 -0.703125 C 3.15625 -0.503906 3.421875 -0.363281 3.734375 -0.28125 L 3.734375 0 L 1.09375 0 L 1.09375 -0.28125 C 1.414062 -0.375 1.632812 -0.582031 1.75 -0.90625 C 1.875 -1.226562 1.9375 -1.816406 1.9375 -2.671875 L 1.9375 -12.078125 C 1.9375 -12.953125 1.859375 -13.546875 1.703125 -13.859375 C 1.546875 -14.171875 1.257812 -14.378906 0.84375 -14.484375 L 0.84375 -14.75 L 2.90625 -14.75 L 12.125 -2.828125 L 12.125 -11.234375 C 12.125 -12.035156 12.066406 -12.65625 11.953125 -13.09375 C 11.835938 -13.539062 11.675781 -13.863281 11.46875 -14.0625 C 11.257812 -14.257812 10.992188 -14.398438 10.671875 -14.484375 L 10.671875 -14.75 L 13.328125 -14.75 L 13.328125 -14.484375 C 13.003906 -14.378906 12.78125 -14.171875 12.65625 -13.859375 C 12.539062 -13.546875 12.484375 -12.953125 12.484375 -12.078125 L 12.484375 0.171875 Z M 12.203125 0.171875 "/></g></g></g><g fill="#ffffff" fill-opacity="1"><g transform="translate(116.887435, 18.297103)"><g><path d="M -0.359375 0 L -0.359375 -0.28125 C -0.0664062 -0.375 0.21875 -0.5625 0.5 -0.84375 C 0.78125 -1.132812 1.082031 -1.679688 1.40625 -2.484375 L 5.5625 -12.765625 C 5.6875 -13.109375 5.671875 -13.441406 5.515625 -13.765625 L 5.328125 -14.203125 L 6.90625 -14.921875 L 12.09375 -2.46875 C 12.414062 -1.675781 12.707031 -1.132812 12.96875 -0.84375 C 13.226562 -0.5625 13.472656 -0.375 13.703125 -0.28125 L 13.703125 0 L 10.4375 0 L 10.4375 -0.28125 C 10.757812 -0.375 10.890625 -0.5625 10.828125 -0.84375 C 10.773438 -1.132812 10.582031 -1.675781 10.25 -2.46875 L 8.953125 -5.5625 L 3.015625 -5.5625 L 1.765625 -2.484375 C 1.234375 -1.148438 1.320312 -0.414062 2.03125 -0.28125 L 2.03125 0 Z M 3.140625 -5.875 L 8.828125 -5.875 L 5.9375 -12.8125 Z M 3.140625 -5.875 "/></g></g></g><g fill="#ffffff" fill-opacity="1"><g transform="translate(36.395116, 31.388412)"><g><path d="M 5.90625 0 L 4.25 -2.296875 C 4.039062 -2.253906 3.800781 -2.234375 3.53125 -2.234375 L 1.546875 -2.234375 L 1.546875 0 L 1.21875 0 L 1.21875 -6.65625 L 3.53125 -6.65625 C 4.363281 -6.65625 5.007812 -6.457031 5.46875 -6.0625 C 5.9375 -5.675781 6.171875 -5.140625 6.171875 -4.453125 C 6.171875 -3.921875 6.03125 -3.472656 5.75 -3.109375 C 5.476562 -2.753906 5.085938 -2.507812 4.578125 -2.375 L 6.28125 0 Z M 3.546875 -2.53125 C 4.285156 -2.53125 4.851562 -2.695312 5.25 -3.03125 C 5.65625 -3.363281 5.859375 -3.835938 5.859375 -4.453125 C 5.859375 -5.054688 5.65625 -5.523438 5.25 -5.859375 C 4.851562 -6.191406 4.285156 -6.359375 3.546875 -6.359375 L 1.546875 -6.359375 L 1.546875 -2.53125 Z M 3.546875 -2.53125 "/></g></g></g><g fill="#ffffff" fill-opacity="1"><g transform="translate(45.466395, 31.388412)"><g><path d="M 5.71875 -0.296875 L 5.71875 0 L 1.21875 0 L 1.21875 -6.65625 L 5.578125 -6.65625 L 5.578125 -6.359375 L 1.546875 -6.359375 L 1.546875 -3.53125 L 5.15625 -3.53125 L 5.15625 -3.234375 L 1.546875 -3.234375 L 1.546875 -0.296875 Z M 5.71875 -0.296875 "/></g></g></g><g fill="#ffffff" fill-opacity="1"><g transform="translate(54.061806, 31.388412)"><g><path d="M 2.90625 0.03125 C 2.414062 0.03125 1.953125 -0.0507812 1.515625 -0.21875 C 1.085938 -0.382812 0.753906 -0.609375 0.515625 -0.890625 L 0.6875 -1.109375 C 0.914062 -0.859375 1.226562 -0.648438 1.625 -0.484375 C 2.019531 -0.328125 2.441406 -0.25 2.890625 -0.25 C 3.554688 -0.25 4.054688 -0.378906 4.390625 -0.640625 C 4.734375 -0.898438 4.90625 -1.238281 4.90625 -1.65625 C 4.90625 -1.96875 4.816406 -2.222656 4.640625 -2.421875 C 4.460938 -2.617188 4.242188 -2.765625 3.984375 -2.859375 C 3.722656 -2.953125 3.367188 -3.054688 2.921875 -3.171875 C 2.441406 -3.285156 2.054688 -3.398438 1.765625 -3.515625 C 1.472656 -3.628906 1.222656 -3.800781 1.015625 -4.03125 C 0.816406 -4.269531 0.71875 -4.585938 0.71875 -4.984375 C 0.71875 -5.296875 0.796875 -5.582031 0.953125 -5.84375 C 1.117188 -6.101562 1.375 -6.3125 1.71875 -6.46875 C 2.0625 -6.625 2.484375 -6.703125 2.984375 -6.703125 C 3.347656 -6.703125 3.707031 -6.644531 4.0625 -6.53125 C 4.414062 -6.425781 4.710938 -6.28125 4.953125 -6.09375 L 4.8125 -5.828125 C 4.550781 -6.023438 4.257812 -6.171875 3.9375 -6.265625 C 3.625 -6.359375 3.3125 -6.40625 3 -6.40625 C 2.351562 -6.40625 1.863281 -6.269531 1.53125 -6 C 1.195312 -5.738281 1.03125 -5.398438 1.03125 -4.984375 C 1.03125 -4.660156 1.117188 -4.398438 1.296875 -4.203125 C 1.472656 -4.015625 1.691406 -3.867188 1.953125 -3.765625 C 2.222656 -3.660156 2.582031 -3.554688 3.03125 -3.453125 C 3.507812 -3.328125 3.894531 -3.207031 4.1875 -3.09375 C 4.476562 -2.988281 4.722656 -2.820312 4.921875 -2.59375 C 5.117188 -2.363281 5.21875 -2.054688 5.21875 -1.671875 C 5.21875 -1.359375 5.132812 -1.070312 4.96875 -0.8125 C 4.800781 -0.550781 4.539062 -0.34375 4.1875 -0.1875 C 3.84375 -0.0390625 3.414062 0.03125 2.90625 0.03125 Z M 2.90625 0.03125 "/></g></g></g><g fill="#ffffff" fill-opacity="1"><g transform="translate(62.048107, 31.388412)"><g><path d="M 2.484375 -6.359375 L 0.03125 -6.359375 L 0.03125 -6.65625 L 5.25 -6.65625 L 5.25 -6.359375 L 2.796875 -6.359375 L 2.796875 0 L 2.484375 0 Z M 2.484375 -6.359375 "/></g></g></g><g fill="#ffffff" fill-opacity="1"><g transform="translate(69.568058, 31.388412)"><g><path d="M 5.296875 -1.953125 L 1.3125 -1.953125 L 0.421875 0 L 0.0625 0 L 3.15625 -6.65625 L 3.46875 -6.65625 L 6.546875 0 L 6.1875 0 Z M 5.171875 -2.234375 L 3.3125 -6.296875 L 1.4375 -2.234375 Z M 5.171875 -2.234375 "/></g></g></g><g fill="#ffffff" fill-opacity="1"><g transform="translate(78.429958, 31.388412)"><g><path d="M 3.78125 0.03125 C 2.957031 0.03125 2.3125 -0.207031 1.84375 -0.6875 C 1.382812 -1.164062 1.15625 -1.875 1.15625 -2.8125 L 1.15625 -6.65625 L 1.484375 -6.65625 L 1.484375 -2.8125 C 1.484375 -1.96875 1.679688 -1.328125 2.078125 -0.890625 C 2.472656 -0.460938 3.039062 -0.25 3.78125 -0.25 C 4.507812 -0.25 5.070312 -0.460938 5.46875 -0.890625 C 5.875 -1.328125 6.078125 -1.96875 6.078125 -2.8125 L 6.078125 -6.65625 L 6.390625 -6.65625 L 6.390625 -2.8125 C 6.390625 -1.875 6.160156 -1.164062 5.703125 -0.6875 C 5.242188 -0.207031 4.601562 0.03125 3.78125 0.03125 Z M 3.78125 0.03125 "/></g></g></g><g fill="#ffffff" fill-opacity="1"><g transform="translate(88.215035, 31.388412)"><g><path d="M 5.90625 0 L 4.25 -2.296875 C 4.039062 -2.253906 3.800781 -2.234375 3.53125 -2.234375 L 1.546875 -2.234375 L 1.546875 0 L 1.21875 0 L 1.21875 -6.65625 L 3.53125 -6.65625 C 4.363281 -6.65625 5.007812 -6.457031 5.46875 -6.0625 C 5.9375 -5.675781 6.171875 -5.140625 6.171875 -4.453125 C 6.171875 -3.921875 6.03125 -3.472656 5.75 -3.109375 C 5.476562 -2.753906 5.085938 -2.507812 4.578125 -2.375 L 6.28125 0 Z M 3.546875 -2.53125 C 4.285156 -2.53125 4.851562 -2.695312 5.25 -3.03125 C 5.65625 -3.363281 5.859375 -3.835938 5.859375 -4.453125 C 5.859375 -5.054688 5.65625 -5.523438 5.25 -5.859375 C 4.851562 -6.191406 4.285156 -6.359375 3.546875 -6.359375 L 1.546875 -6.359375 L 1.546875 -2.53125 Z M 3.546875 -2.53125 "/></g></g></g><g fill="#ffffff" fill-opacity="1"><g transform="translate(97.286313, 31.388412)"><g><path d="M 5.296875 -1.953125 L 1.3125 -1.953125 L 0.421875 0 L 0.0625 0 L 3.15625 -6.65625 L 3.46875 -6.65625 L 6.546875 0 L 6.1875 0 Z M 5.171875 -2.234375 L 3.3125 -6.296875 L 1.4375 -2.234375 Z M 5.171875 -2.234375 "/></g></g></g><g fill="#ffffff" fill-opacity="1"><g transform="translate(106.148216, 31.388412)"><g><path d="M 6.53125 -6.65625 L 6.53125 0 L 6.265625 0 L 1.546875 -6.078125 L 1.546875 0 L 1.21875 0 L 1.21875 -6.65625 L 1.484375 -6.65625 L 6.21875 -0.59375 L 6.21875 -6.65625 Z M 6.53125 -6.65625 "/></g></g></g><g fill="#ffffff" fill-opacity="1"><g transform="translate(116.142679, 31.388412)"><g><path d="M 2.484375 -6.359375 L 0.03125 -6.359375 L 0.03125 -6.65625 L 5.25 -6.65625 L 5.25 -6.359375 L 2.796875 -6.359375 L 2.796875 0 L 2.484375 0 Z M 2.484375 -6.359375 "/></g></g></g></svg>